<?xml version="1.0" standalone="no"?>
<!DOCTYPE svg PUBLIC "-//W3C//DTD SVG 20010904//EN"
 "http://www.w3.org/TR/2001/REC-SVG-20010904/DTD/svg10.dtd">
<svg version="1.0" xmlns="http://www.w3.org/2000/svg"
 width="700.000000pt" height="700.000000pt" viewBox="0 0 700.000000 700.000000"
 preserveAspectRatio="xMidYMid meet">
<metadata>
Created by potrace 1.11, written by Peter Selinger 2001-2013
</metadata>
<g transform="translate(0.000000,700.000000) scale(0.100000,-0.100000)"
fill="#000000" stroke="none">
<path d="M1861 6988 c-52 -15 -89 -48 -117 -105 -26 -53 -28 -85 -8 -165 15
-63 97 -116 209 -133 101 -15 200 -107 199 -183 0 -59 -149 -351 -238 -467
-72 -95 -194 -192 -297 -238 -148 -66 -191 -73 -419 -71 -343 3 -309 -2 -327
42 -22 54 -18 126 12 212 36 99 30 159 -22 219 -19 23 -48 48 -63 56 -40 21
-129 26 -166 10 -81 -34 -155 -155 -180 -295 -7 -45 -8 -219 -1 -227 12 -11
-13 -41 -39 -47 -14 -4 -43 -18 -65 -31 -21 -14 -41 -25 -44 -25 -9 0 -58 -43
-123 -107 -83 -83 -117 -153 -109 -233 11 -126 118 -204 244 -178 40 9 58 22
123 88 87 90 122 110 200 117 53 5 57 4 83 -26 34 -41 123 -185 176 -285 128
-245 128 -511 -1 -756 -63 -120 -175 -288 -208 -312 -32 -24 -123 -29 -168
-11 -36 15 -55 30 -146 116 -77 74 -98 84 -169 82 -76 -2 -131 -39 -169 -113
-51 -100 -24 -185 95 -306 72 -72 135 -117 212 -151 l55 -25 -7 -88 c-10 -157
45 -350 120 -420 34 -32 115 -60 160 -56 64 6 131 53 163 116 19 37 19 113 1
165 -46 124 -33 260 25 282 24 9 189 14 397 13 154 -2 187 -6 284 -40 99 -35
223 -112 310 -191 36 -33 105 -129 144 -201 17 -30 61 -111 98 -180 101 -187
133 -231 185 -257 55 -29 120 -30 174 -3 40 19 94 84 137 161 209 381 228 411
319 497 60 58 113 94 207 141 134 67 176 74 448 74 166 0 247 -4 263 -12 57
-31 72 -146 33 -259 -37 -109 -24 -195 38 -250 40 -36 74 -51 124 -55 100 -10
193 68 237 198 27 81 32 120 34 254 l2 115 60 25 c58 26 107 54 131 78 7 6 23
20 36 30 63 51 137 163 152 230 10 49 -18 132 -57 169 -46 44 -70 54 -132 58
-74 4 -116 -19 -201 -109 -56 -58 -79 -76 -115 -86 -41 -11 -128 -16 -134 -7
-2 1 -42 67 -90 146 -169 279 -206 387 -200 595 4 152 42 264 151 447 78 131
126 200 146 206 10 3 40 0 64 -7 36 -10 65 -31 134 -100 104 -104 151 -122
241 -92 115 37 169 156 123 267 -44 106 -158 217 -282 277 l-83 40 -2 122 c0
67 -2 127 -3 132 -24 163 -119 295 -221 309 -68 9 -122 -9 -170 -58 -65 -64
-79 -153 -39 -240 43 -93 37 -201 -12 -233 -23 -15 -51 -17 -222 -16 -227 3
-255 5 -336 26 -130 35 -243 103 -355 216 -82 82 -126 151 -227 353 -77 156
-82 178 -51 238 38 74 111 119 218 133 38 5 95 29 122 50 9 7 29 37 44 67 20
40 25 62 22 94 -6 53 -35 114 -68 143 -96 86 -337 52 -513 -73 -26 -19 -52
-34 -59 -34 -6 0 -25 11 -42 23 -17 13 -58 38 -91 54 -96 49 -100 50 -195 70
-45 9 -139 10 -169 1z m636 -1853 c125 -29 258 -112 335 -206 87 -107 141
-267 137 -401 -8 -256 -150 -458 -392 -561 -64 -27 -85 -31 -188 -34 -196 -5
-326 45 -460 177 -122 120 -184 269 -181 440 4 282 213 535 487 590 66 13 196
11 262 -5z"/>
<path d="M2555 2183 c-57 -20 -91 -25 -187 -26 -116 -2 -118 -2 -118 -25 0
-13 20 -76 45 -140 189 -485 529 -886 965 -1138 181 -105 275 -145 555 -234
46 -14 263 -52 325 -55 60 -4 494 -12 1020 -20 448 -7 463 -8 514 -41 105 -68
149 -139 161 -262 16 -165 76 -232 210 -232 172 0 232 132 179 395 -8 44 -20
84 -25 89 -5 6 -9 20 -9 32 l0 22 273 0 c417 0 451 7 501 102 61 114 30 226
-78 279 -46 23 -60 25 -255 27 -113 2 -212 3 -218 3 -7 1 21 44 62 96 142 183
257 420 289 600 3 17 8 41 11 55 10 47 18 247 11 284 -8 44 -56 100 -107 127
-77 39 -191 14 -242 -52 -34 -46 -47 -97 -62 -244 -32 -318 -268 -641 -569
-781 -110 -50 -205 -71 -336 -74 -228 -6 -1197 -3 -1280 3 -112 9 -293 48
-405 87 -123 44 -322 143 -425 213 -141 96 -388 341 -478 476 -55 83 -167 297
-217 419 -10 23 -23 41 -29 41 -6 -1 -42 -13 -81 -26z"/>
</g>
</svg>
